<?xml version="1.0" standalone="no"?>
<!DOCTYPE svg PUBLIC "-//W3C//DTD SVG 20010904//EN"
 "http://www.w3.org/TR/2001/REC-SVG-20010904/DTD/svg10.dtd">
<svg version="1.0" xmlns="http://www.w3.org/2000/svg"
 width="650.000000pt" height="650.000000pt" viewBox="0 0 650.000000 650.000000"
 preserveAspectRatio="xMidYMid meet">
<metadata>
Created by potrace 1.11, written by Peter Selinger 2001-2013
</metadata>
<g transform="translate(0.000000,650.000000) scale(0.100000,-0.100000)"
fill="#000000" stroke="none">
<path d="M1998 5365 c-2 -2 -52 -6 -113 -9 -60 -4 -126 -9 -145 -11 -19 -3
-57 -7 -84 -10 -171 -16 -526 -115 -816 -228 -177 -68 -367 -176 -405 -229
-32 -46 -11 -118 47 -159 39 -29 81 -28 139 2 38 19 306 122 349 134 8 2 49
15 90 30 67 23 290 86 351 99 13 3 42 10 64 15 22 6 55 13 74 16 19 3 37 7 40
9 3 2 31 7 61 11 30 4 57 8 60 10 3 1 32 6 65 10 33 4 71 8 85 10 162 22 691
22 910 0 397 -40 504 -63 790 -168 112 -41 239 -91 295 -117 22 -10 108 -46
190 -80 387 -160 549 -219 700 -255 39 -9 79 -19 90 -21 11 -3 31 -7 45 -10
241 -45 373 -65 530 -79 36 -3 83 -8 105 -10 163 -17 616 -24 670 -11 21 5 25
13 25 42 0 51 -19 121 -39 137 -12 11 -64 16 -221 21 -113 4 -225 9 -250 11
-25 2 -79 7 -120 10 -41 4 -88 8 -105 10 -16 2 -57 6 -90 10 -33 3 -67 8 -75
10 -8 2 -33 6 -55 10 -243 35 -402 87 -940 310 -88 37 -171 70 -185 75 -14 4
-110 44 -215 90 -423 183 -525 214 -880 265 -136 19 -160 22 -380 41 -59 5
-652 13 -657 9z"/>
<path d="M1939 4316 c-2 -2 -43 -6 -90 -9 -152 -11 -401 -76 -548 -143 -132
-61 -199 -128 -428 -434 -64 -85 -119 -157 -122 -160 -4 -3 -28 -32 -56 -65
-27 -33 -110 -122 -184 -198 -173 -176 -198 -214 -173 -254 18 -28 66 -32 333
-27 231 4 283 2 334 -12 84 -22 115 -41 130 -78 17 -41 21 -417 5 -478 -10
-35 -53 -113 -71 -128 -10 -9 -30 -73 -35 -115 -6 -45 15 -118 50 -174 13 -20
32 -62 44 -93 25 -66 147 -543 156 -605 9 -69 35 -172 51 -203 21 -41 49 -53
110 -47 56 6 93 23 100 47 9 32 16 149 30 490 16 391 28 498 65 583 17 38 19
75 22 312 1 149 5 285 8 303 l5 33 50 -25 c28 -14 97 -62 155 -106 310 -236
422 -319 571 -418 145 -96 253 -166 307 -197 9 -6 84 -50 167 -99 208 -125
486 -275 707 -384 103 -51 189 -92 192 -92 3 0 30 -11 59 -25 87 -39 362 -144
487 -185 322 -106 656 -131 1000 -75 35 6 171 42 228 61 175 58 364 183 457
304 112 147 151 267 149 465 -3 287 -180 478 -429 462 -98 -6 -162 -33 -225
-97 -61 -61 -92 -128 -98 -215 -5 -83 8 -137 46 -194 55 -82 146 -127 244
-122 176 9 266 236 134 336 -60 46 -127 42 -168 -9 -37 -45 -10 -126 42 -126
18 0 20 6 18 43 -3 37 0 42 20 45 15 2 34 -5 49 -20 22 -20 24 -29 20 -71 -6
-68 -46 -108 -114 -114 -183 -18 -263 235 -121 378 68 68 188 84 289 37 131
-60 189 -175 189 -372 0 -175 -64 -303 -210 -418 -118 -94 -345 -184 -514
-204 -22 -3 -44 -8 -48 -10 -15 -10 -322 -13 -393 -4 -264 32 -450 90 -785
243 -616 281 -1189 640 -1614 1010 -142 124 -236 229 -236 262 0 20 40 32 180
54 314 51 517 97 724 166 168 55 502 187 586 231 36 18 83 36 105 40 61 10
176 11 252 3 144 -15 204 -19 388 -24 105 -3 244 -8 310 -10 66 -2 194 -7 285
-10 182 -6 302 -13 358 -20 20 -2 66 -6 102 -9 36 -3 94 -8 130 -11 35 -3 76
-7 90 -9 14 -3 63 -7 110 -11 97 -7 139 -12 193 -20 20 -4 37 -3 38 2 7 85 8
237 0 250 -8 16 -34 18 -273 19 -144 1 -290 5 -323 8 -33 3 -112 8 -175 12
-63 3 -131 7 -150 9 -19 1 -84 5 -145 9 -60 4 -135 9 -165 11 -30 2 -109 7
-175 10 -152 7 -253 14 -285 20 -14 2 -50 7 -80 10 -79 9 -228 42 -344 77
-112 33 -189 69 -327 153 -128 78 -200 113 -364 178 -236 93 -550 182 -750
212 -16 3 -77 12 -135 21 -90 14 -509 30 -521 20z"/>
</g>
</svg>
